<?xml version="1.0" encoding="iso-8859-1"?>
<!-- Generator: Adobe Illustrator 19.0.0, SVG Export Plug-In . SVG Version: 6.00 Build 0)  -->
<svg xmlns="http://www.w3.org/2000/svg" xmlns:xlink="http://www.w3.org/1999/xlink" version="1.1" id="Capa_1" x="0px" y="0px" viewBox="0 0 512 512" style="enable-background:new 0 0 512 512;" xml:space="preserve" width="512px" height="512px">
<g>
	<g>
		<rect x="370" y="419" width="30" height="30" fill="#4083b3"/>
	</g>
</g>
<g>
	<g>
		<path d="M344.747,167c-1.609-9.557-4.768-18.791-9.343-27.358L435.147,0H338.28l-66.689,93.365C266.464,92.468,261.255,92,256,92    c-5.318,0-10.524,0.476-15.591,1.365L173.72,0H76.853l99.761,139.667c-4.503,8.41-7.724,17.604-9.364,27.333H0v345h512V167    H344.747z M353.72,30h23.133l-87.236,122.129c-4.189-4.709-9.349-8.53-15.164-11.156L353.72,30z M271,182c0,8.271-6.729,15-15,15    s-15-6.729-15-15s6.729-15,15-15S271,173.729,271,182z M135.147,30h23.133l52.866,74.013c-5.465,3.156-10.565,6.87-15.231,11.063    L135.147,30z M180,482H60v-35c0-24.813,20.187-45,45-45h30c24.813,0,45,20.187,45,45V482z M85,337c0-19.299,15.701-35,35-35    s35,15.701,35,35s-15.701,35-35,35S85,356.299,85,337z M210,447c0-29.25-16.842-54.626-41.328-66.985    C178.821,368.544,185,353.484,185,337c0-35.841-29.159-65-65-65s-65,29.159-65,65c0,16.484,6.179,31.544,16.328,43.015    C46.842,392.374,30,417.75,30,447V269h180V447z M482,482H240V269h242V482z M482,239H30v-42h166v-15    c0-31.391,24.236-57.211,54.976-59.774l-13.373,18.722C221.939,147.996,211,163.739,211,182c0,24.813,20.187,45,45,45    c22.617,0,41.382-16.774,44.529-38.532l14.012-19.618c0.96,4.291,1.459,8.699,1.459,13.15v15h166V239z" fill="#4083b3"/>
	</g>
</g>
<g>
	<g>
		<rect x="270" y="299" width="138" height="30" fill="#4083b3"/>
	</g>
</g>
<g>
	<g>
		<rect x="270" y="349" width="188" height="30" fill="#4083b3"/>
	</g>
</g>
<g>
	<g>
		<circle cx="285" cy="434" r="15" fill="#4083b3"/>
	</g>
</g>
<g>
	<g>
		<circle cx="335" cy="434" r="15" fill="#4083b3"/>
	</g>
</g>
<g>
	<g>
		<circle cx="435" cy="434" r="15" fill="#4083b3"/>
	</g>
</g>
<g>
</g>
<g>
</g>
<g>
</g>
<g>
</g>
<g>
</g>
<g>
</g>
<g>
</g>
<g>
</g>
<g>
</g>
<g>
</g>
<g>
</g>
<g>
</g>
<g>
</g>
<g>
</g>
<g>
</g>
</svg>
