<?xml version="1.0" encoding="iso-8859-1"?>
<!-- Generator: Adobe Illustrator 19.0.0, SVG Export Plug-In . SVG Version: 6.00 Build 0)  -->
<svg xmlns="http://www.w3.org/2000/svg" xmlns:xlink="http://www.w3.org/1999/xlink" version="1.1" id="Capa_1" x="0px" y="0px" viewBox="0 0 512 512" style="enable-background:new 0 0 512 512;" xml:space="preserve" width="512px" height="512px">
<g>
	<g>
		<path d="M255,211.5c-41.355,0-75,33.645-75,75s33.645,75,75,75s75-33.645,75-75C330,245.145,296.355,211.5,255,211.5z M255,331.5    c-24.813,0-45-20.187-45-45s20.187-45,45-45s45,20.187,45,45S279.813,331.5,255,331.5z" fill="#3e8ec7"/>
	</g>
</g>
<g>
	<g>
		<circle cx="255" cy="286.5" r="15" fill="#3e8ec7"/>
	</g>
</g>
<g>
	<g>
		<path d="M467,150.5H45c-24.813,0-45,20.187-45,45v180c0,24.813,20.187,45,45,45h15v15c0,24.813,20.187,45,45,45h30    c24.813,0,45-20.187,45-45v-15h150v15c0,24.813,20.187,45,45,45h32c24.813,0,45-20.187,45-45v-15h15c24.813,0,45-20.187,45-45    v-180C512,170.687,491.813,150.5,467,150.5z M150,435.5c0,8.271-6.729,15-15,15h-30c-8.271,0-15-6.729-15-15v-15h60V435.5z     M45,390.5c-8.271,0-15-6.729-15-15v-15h15c8.284,0,15-6.715,15-15c0-8.284-6.716-15-15-15H30v-30h15c8.284,0,15-6.716,15-15    s-6.716-15-15-15H30v-30h15c8.284,0,15-6.716,15-15s-6.716-15-15-15H30v-15c0-8.271,6.729-15.2,15-15.2h125.251    C139.623,205.069,120,243.133,120,285.5s19.623,80.231,50.252,105H45z M255,390.5c-57.897,0-105-47.103-105-105    c0-57.897,47.103-105,105-105c57.897,0,105,47.103,105,105C360,343.397,312.897,390.5,255,390.5z M422,435.5    c0,8.271-6.729,15-15,15h-32c-8.271,0-15-6.729-15-15v-15h62V435.5z M482,210.5h-15c-8.284,0-15,6.716-15,15s6.716,15,15,15h15v30    h-15c-8.284,0-15,6.716-15,15s6.716,15,15,15h15v30h-15c-8.284,0-15,6.716-15,15s6.716,15,15,15h15v15c0,8.271-6.729,15-15,15    H339.748C370.377,365.731,390,327.867,390,285.5s-19.623-80.231-50.251-105H467c8.271,0,15,6.729,15,15V210.5z" fill="#3e8ec7"/>
	</g>
</g>
<g>
	<g>
		<path d="M255,31.5c-8.284,0-15,6.716-15,15v60c0,8.284,6.716,15,15,15s15-6.716,15-15v-60C270,38.216,263.284,31.5,255,31.5z" fill="#3e8ec7"/>
	</g>
</g>
<g>
	<g>
		<path d="M201.967,92.254L159.54,49.827c-5.857-5.858-15.355-5.857-21.213,0c-5.858,5.858-5.858,15.355,0,21.213l42.427,42.427    c5.857,5.858,15.355,5.858,21.213,0C207.825,107.609,207.825,98.112,201.967,92.254z" fill="#3e8ec7"/>
	</g>
</g>
<g>
	<g>
		<path d="M371.672,49.827c-5.857-5.858-15.355-5.858-21.213,0l-42.426,42.427c-5.858,5.858-5.858,15.355,0,21.213    c5.857,5.858,15.355,5.858,21.213,0l42.426-42.427C377.53,65.182,377.53,55.685,371.672,49.827z" fill="#3e8ec7"/>
	</g>
</g>
<g>
</g>
<g>
</g>
<g>
</g>
<g>
</g>
<g>
</g>
<g>
</g>
<g>
</g>
<g>
</g>
<g>
</g>
<g>
</g>
<g>
</g>
<g>
</g>
<g>
</g>
<g>
</g>
<g>
</g>
</svg>
